<svg width="80" height="28" viewBox="0 0 80 28" fill="none" xmlns="http://www.w3.org/2000/svg">
<path d="M6.55566 0.622095L13.2227 14.2276C12.017 16.6072 11.0919 18.3665 10.8359 18.6817C10.1645 19.508 9.35817 19.07 9.00195 18.7178L0 0.622095H6.55566Z" fill="url(#paint0_linear_2_2)"/>
<path d="M26.6224 0.622095L13.2444 27.2442L8.9632 18.6817C9.29764 19.0384 10.1406 19.5378 10.8362 18.6817C11.533 17.8231 17.1908 6.2847 19.9329 0.622095H26.6224Z" fill="black"/>
<path d="M26.6224 0.622095L13.2444 27.2442L8.9632 18.6817C9.29764 19.0384 10.1406 19.5378 10.8362 18.6817C11.533 17.8231 17.1908 6.2847 19.9329 0.622095H26.6224Z" stroke="black"/>
<path d="M40 0.622095C41.5005 0.622095 42.9434 0.868649 44.2901 1.32424C37.704 1.79919 32.5088 7.29298 32.5088 14C32.5089 20.707 37.7041 26.1999 44.2901 26.6748C42.9434 27.1305 41.5006 27.378 40 27.378C32.6117 27.378 26.6222 21.3883 26.6221 14C26.6221 6.6117 32.6116 0.622099 40 0.622095Z" fill="black"/>
<path d="M40.3453 27.373L39.9996 27.3779C40.1636 27.3779 40.3273 27.373 40.4898 27.3672C40.4417 27.3689 40.3936 27.3718 40.3453 27.373ZM44.2896 26.6748C44.1373 26.7263 43.9834 26.7741 43.8287 26.8203C43.982 26.7746 44.1338 26.7248 44.2848 26.6738C44.2864 26.6739 44.288 26.6747 44.2896 26.6748ZM44.2877 1.32419C49.5731 3.11135 53.3775 8.11129 53.3775 14C53.3775 19.8894 49.5712 24.8874 44.2848 26.6738C37.7013 26.1962 32.5085 20.7051 32.5084 14C32.5084 7.29376 37.7028 1.80029 44.2877 1.32419ZM31.3746 24.2246C31.3314 24.1881 31.2875 24.1523 31.2447 24.1152L31.0055 23.9023C31.1263 24.0122 31.2498 24.1192 31.3746 24.2246ZM39.8658 6.64255C35.8024 6.6428 32.5084 9.93655 32.5084 14C32.5085 18.0633 35.8024 21.3572 39.8658 21.3574C43.9294 21.3574 47.2241 18.0635 47.2242 14C47.2242 9.9364 43.9295 6.64255 39.8658 6.64255ZM29.4752 5.74119L29.2799 5.99607C29.3442 5.91012 29.4089 5.82455 29.4752 5.74021L29.6773 5.49021C29.609 5.57304 29.5416 5.6567 29.4752 5.74119ZM30.316 4.77048L30.0973 5.00486C30.1693 4.92559 30.2421 4.84702 30.316 4.76951L30.5406 4.54001C30.4648 4.61587 30.39 4.69284 30.316 4.77048ZM40.3453 0.626928C40.3936 0.628151 40.4417 0.630079 40.4898 0.631811C40.3273 0.625971 40.1636 0.622046 39.9996 0.622046L40.3453 0.626928Z" fill="url(#paint1_linear_2_2)"/>
<path d="M60.0669 0.622095H53.5117L63.5452 13.9998L53.5117 27.3776H60.0669L70.1004 13.9998L60.0669 0.622095Z" fill="black"/>
<path d="M80 0.622095L70.1006 14L80 27.378H73.4453L66.8008 18.3994L70.1006 14L66.8008 9.59963L73.4453 0.622095H80Z" fill="url(#paint2_linear_2_2)"/>
<defs>
<linearGradient id="paint0_linear_2_2" x1="8.22672" y1="0.622095" x2="8.22672" y2="27.2424" gradientUnits="userSpaceOnUse">
<stop/>
<stop offset="1" stop-color="#666666"/>
</linearGradient>
<linearGradient id="paint1_linear_2_2" x1="47.3531" y1="14" x2="29.2799" y2="14" gradientUnits="userSpaceOnUse">
<stop/>
<stop offset="1" stop-color="#666666"/>
</linearGradient>
<linearGradient id="paint2_linear_2_2" x1="76.0535" y1="14" x2="63.5452" y2="14" gradientUnits="userSpaceOnUse">
<stop/>
<stop offset="1" stop-color="#666666"/>
</linearGradient>
</defs>
</svg>
