<svg width="64" height="64" viewBox="0 0 64 64" fill="none" xmlns="http://www.w3.org/2000/svg">
<path fill-rule="evenodd" clip-rule="evenodd" d="M0 64H64V0H0V64Z" fill="#FF3700"/>
<path d="M54.2522 36.94C53.7553 36.94 53.2422 36.7635 52.9537 36.603C47.0218 33.538 40.3044 31.7247 33.7634 31.7247C32.9457 31.7247 32.3365 31.7568 31.583 31.837C32.8175 33.7787 34.9337 36.6191 36.3926 38.3522C36.7774 38.8015 36.8896 39.0743 36.8896 39.5076C36.8896 40.2618 36.088 41 35.2383 41C34.6772 41 34.3245 40.7753 33.7954 40.1655C32.0319 38.0954 29.3706 34.4367 28.1041 32.3666C21.8837 33.4578 14.9739 37.0845 10.8858 40.2939C10.4208 40.663 10.1002 40.8235 9.61923 40.8235C8.7535 40.8235 8 40.0853 8 39.2348C8 38.7373 8.17635 38.3682 8.81763 37.8387C15.0541 32.6875 24.7374 28.6115 32.9457 28.6115C36.2002 28.6115 39.3425 29.0608 42.3886 29.799C44.2323 30.2483 46.9737 31.163 49.2984 32.174C43.1902 28.4992 35.5269 25.1453 30.6852 25.1453C29.4508 25.1453 28.6973 25.5625 28.6973 26.3809C28.6973 26.8623 28.9698 27.5203 29.3706 28.1782C28.4087 28.2745 27.1261 28.4671 26.1642 28.7238C25.6672 27.8091 25.3145 26.8302 25.3145 25.7711C25.3306 23.4443 26.8696 22 29.9638 22C36.9858 22 48.7853 28.4992 54.6691 33.2492C55.3424 33.7948 55.9997 34.4687 55.9997 35.2551C56.0158 36.0414 55.3264 36.94 54.2522 36.94Z" fill="white"/>
</svg>
