<svg width="64" height="64" viewBox="0 0 64 64" fill="none" xmlns="http://www.w3.org/2000/svg">
<rect width="64" height="64" fill="#C3111F"/>
<rect x="30" y="32" width="4" height="4" rx="1" fill="#FCFBF9"/>
<path d="M49 27C49.5523 27 50 27.4477 50 28V29C50 29.5523 49.5523 30 49 30H40C39.4477 30 39 30.4477 39 31V32C39 32.5523 39.4477 33 40 33H47C48.6569 33 50 34.3431 50 36V39C50 40.6569 48.6569 42 47 42H37C36.4477 42 36 41.5523 36 41V40C36 39.4477 36.4477 39 37 39H46C46.5523 39 47 38.5523 47 38V37C47 36.4477 46.5523 36 46 36H39C37.3431 36 36 34.6569 36 33V30C36 28.3431 37.3431 27 39 27H49Z" fill="#FFF8F6"/>
<path fill-rule="evenodd" clip-rule="evenodd" d="M27 22C27.5523 22 28 22.4477 28 23V38L27.9951 38.2061C27.8913 40.2512 26.2512 41.8913 24.2061 41.9951L24 42H17L16.7939 41.9951C14.7488 41.8913 13.1087 40.2512 13.0049 38.2061L13 38V31C13 28.86 14.6806 27.1121 16.7939 27.0049L17 27H25V23C25 22.4477 25.4477 22 26 22H27ZM17 30C16.4477 30 16 30.4477 16 31V38C16 38.5523 16.4477 39 17 39H24C24.5523 39 25 38.5523 25 38V30H17Z" fill="#FFF8F6"/>
</svg>
