<svg width="64" height="64" viewBox="0 0 64 64" fill="none" xmlns="http://www.w3.org/2000/svg">
<path d="M46.3906 0.25L63.75 17.6094V63.75H0.25V0.25H46.3906Z" fill="#C3111F" stroke="white" stroke-width="0.5"/>
<path d="M63.3965 17.75H46.25V0.603516L63.3965 17.75Z" fill="#C3111F" stroke="white" stroke-width="0.5"/>
<rect x="31" y="32" width="4" height="4" rx="1" fill="#FCFBF9"/>
<path d="M50 27C50.5523 27 51 27.4477 51 28V29C51 29.5523 50.5523 30 50 30H41C40.4477 30 40 30.4477 40 31V32C40 32.5523 40.4477 33 41 33H48C49.6569 33 51 34.3431 51 36V39C51 40.6569 49.6569 42 48 42H38C37.4477 42 37 41.5523 37 41V40C37 39.4477 37.4477 39 38 39H47C47.5523 39 48 38.5523 48 38V37C48 36.4477 47.5523 36 47 36H40C38.3431 36 37 34.6569 37 33V30C37 28.3431 38.3431 27 40 27H50Z" fill="#FFF8F6"/>
<path fill-rule="evenodd" clip-rule="evenodd" d="M28 22C28.5523 22 29 22.4477 29 23V38L28.9951 38.2061C28.8913 40.2512 27.2512 41.8913 25.2061 41.9951L25 42H18L17.7939 41.9951C15.7488 41.8913 14.1087 40.2512 14.0049 38.2061L14 38V31C14 28.86 15.6806 27.1121 17.7939 27.0049L18 27H26V23C26 22.4477 26.4477 22 27 22H28ZM18 30C17.4477 30 17 30.4477 17 31V38C17 38.5523 17.4477 39 18 39H25C25.5523 39 26 38.5523 26 38V30H18Z" fill="#FFF8F6"/>
</svg>
