<svg width="64" height="64" viewBox="0 0 64 64" fill="none" xmlns="http://www.w3.org/2000/svg">
<path fill-rule="evenodd" clip-rule="evenodd" d="M0 64H64V0H0V64Z" fill="#003365"/>
<path fill-rule="evenodd" clip-rule="evenodd" d="M31.4181 57.4995H26.7742V55.2526C25.0505 56.8805 22.6219 58.1817 19.273 58.1817C10.31 58.1817 5.81813 50.6891 5.81813 44.2283C5.81813 37.7704 10.2657 30.2545 19.1388 30.2545C28.0119 30.2545 31.3673 38.3479 31.3673 38.3479L27.3514 40.8051C27.3514 40.8051 24.5841 35.4541 19.2288 35.4541C13.8743 35.4541 10.7646 40.1771 10.7646 44.2283C10.7646 48.281 13.9193 52.9566 19.321 52.9566C23.0625 52.9566 25.1914 50.6319 26.147 49.2057H19.2701V44.2064H31.4181V57.4995Z" fill="white"/>
<path fill-rule="evenodd" clip-rule="evenodd" d="M32.5818 44.206H44.7284V49.2057H37.854C38.8082 50.6319 40.9367 52.9562 44.679 52.9562C50.0804 52.9562 53.2351 48.2803 53.2351 44.2279C53.2351 40.1761 50.1245 35.4537 44.7704 35.4537C39.4165 35.4537 36.6475 40.8049 36.6475 40.8049L32.6314 38.3489C32.6314 38.3489 35.9877 30.2545 44.862 30.2545C53.7334 30.2545 58.182 37.7706 58.182 44.2279C58.182 50.6883 53.6898 58.1817 44.7255 58.1817C41.3772 58.1817 38.9486 56.8799 37.221 55.2512V57.498H32.5818V44.206Z" fill="white"/>
</svg>
