<svg width="64" height="64" viewBox="0 0 64 64" fill="none" xmlns="http://www.w3.org/2000/svg">
<path fill-rule="evenodd" clip-rule="evenodd" d="M0 64H64V0H0V64Z" fill="#003365"/>
<path fill-rule="evenodd" clip-rule="evenodd" d="M31.4181 45.245H26.7742V42.998C25.0505 44.626 22.6219 45.9272 19.273 45.9272C10.31 45.9272 5.81813 38.4346 5.81813 31.9738C5.81813 25.5158 10.2657 18 19.1388 18C28.0119 18 31.3673 26.0934 31.3673 26.0934L27.3514 28.5506C27.3514 28.5506 24.5841 23.1996 19.2288 23.1996C13.8743 23.1996 10.7646 27.9226 10.7646 31.9738C10.7646 36.0265 13.9193 40.7021 19.321 40.7021C23.0625 40.7021 25.1914 38.3774 26.147 36.9512H19.2701V31.9519H31.4181V45.245Z" fill="white"/>
<path fill-rule="evenodd" clip-rule="evenodd" d="M32.5818 31.9515H44.7284V36.9512H37.854C38.8082 38.3774 40.9367 40.7017 44.679 40.7017C50.0804 40.7017 53.2351 36.0257 53.2351 31.9734C53.2351 27.9216 50.1245 23.1992 44.7704 23.1992C39.4165 23.1992 36.6475 28.5504 36.6475 28.5504L32.6314 26.0943C32.6314 26.0943 35.9877 18 44.862 18C53.7334 18 58.182 25.516 58.182 31.9734C58.182 38.4338 53.6898 45.9272 44.7255 45.9272C41.3772 45.9272 38.9486 44.6254 37.221 42.9967V45.2435H32.5818V31.9515Z" fill="white"/>
</svg>
