<svg width="64" height="64" viewBox="0 0 64 64" fill="none" xmlns="http://www.w3.org/2000/svg">
<rect width="64" height="64" fill="#273069"/>
<rect x="15" y="22" width="3" height="19" fill="#F8F8F6"/>
<rect x="27" y="22" width="3" height="19" fill="#F8F8F6"/>
<rect x="21" y="30" width="6" height="3" fill="#99AAD6"/>
<path d="M34.0725 35.971C34.2705 37.2903 34.8678 38.5295 35.7941 39.543C36.7205 40.5566 37.9375 41.3023 39.3023 41.6927C40.667 42.0831 42.1227 42.1019 43.4985 41.7469C44.8743 41.3919 46.1129 40.6779 47.069 39.6887C48.0251 38.6994 48.6588 37.4761 48.8959 36.1624C49.1329 34.8487 48.9633 33.4991 48.4071 32.2722C47.8509 31.0453 46.9311 29.992 45.7557 29.2361C44.5804 28.4801 43.1983 28.0529 41.7719 28.0046L41.6581 30.9316C42.4877 30.9597 43.2915 31.2081 43.9751 31.6478C44.6586 32.0874 45.1936 32.7 45.5171 33.4135C45.8406 34.1271 45.9392 34.912 45.8013 35.676C45.6635 36.4401 45.2949 37.1515 44.7389 37.7269C44.1828 38.3022 43.4624 38.7175 42.6623 38.9239C41.8622 39.1304 41.0155 39.1194 40.2218 38.8924C39.4281 38.6654 38.7203 38.2316 38.1815 37.6422C37.6428 37.0527 37.2954 36.332 37.1803 35.5647L34.0725 35.971Z" fill="#F8F8F6"/>
<path d="M36 22H47V25H39L38.5 30H35L36 22Z" fill="#99AAD6"/>
</svg>
