<svg width="64" height="64" viewBox="0 0 64 64" fill="none" xmlns="http://www.w3.org/2000/svg">
<path fill-rule="evenodd" clip-rule="evenodd" d="M0 64H64V0H0V64Z" fill="#155281"/>
<path d="M11.6355 34.6946C11.6355 27.3941 23.133 21.5123 37.3202 21.5123C44.6798 21.5123 51.3005 23.1084 56 25.6502C51.5665 21.6601 43.2315 19 33.6847 19C19.4975 19 8 24.9113 8 32.1823C8 35.6995 10.6601 38.8916 15.0049 41.2562C12.8473 39.2759 11.6355 37.0591 11.6355 34.6946Z" fill="white"/>
<path d="M18.3744 38.0049C18.3744 32.3892 27.2414 27.8375 38.1773 27.8375C43.8522 27.8375 48.9655 29.0493 52.5714 31.0296C49.1724 27.9557 42.7291 25.8867 35.3695 25.8867C24.4335 25.8867 15.5665 30.4384 15.5665 36.0542C15.5665 38.7734 17.6355 41.2266 20.9754 43.0296C19.3202 41.5517 18.3744 39.8375 18.3744 38.0049Z" fill="white"/>
<path d="M24.3153 40.4877C24.3153 36.6453 30.404 33.5123 37.8818 33.5123C41.7537 33.5123 45.271 34.3399 47.7537 35.6995C45.4187 33.601 41.0148 32.1823 35.9606 32.1823C28.4828 32.1823 22.3941 35.2857 22.3941 39.1576C22.3941 41.0197 23.8128 42.7044 26.0887 43.9458C24.9655 42.9113 24.3153 41.729 24.3153 40.4877Z" fill="white"/>
<path d="M28.9557 42.4385C28.9557 39.867 33.0049 37.7981 38 37.7981C40.601 37.7981 42.936 38.3597 44.5911 39.2464C43.0246 37.8572 40.0985 36.9114 36.7291 36.9114C31.734 36.9114 27.6847 38.9803 27.6847 41.5518C27.6847 42.7931 28.6305 43.9163 30.1675 44.7439C29.399 44.0641 28.9557 43.2956 28.9557 42.4385Z" fill="white"/>
</svg>
