<svg width="64" height="64" viewBox="0 0 64 64" fill="none" xmlns="http://www.w3.org/2000/svg">
<path fill-rule="evenodd" clip-rule="evenodd" d="M0 64H64V0H0V64Z" fill="#84DB00"/>
<path d="M12.2945 32.9066C12.2945 34.0581 11.902 34.4268 10.9524 34.4268C9.96768 34.4268 9.66596 34.096 9.66596 32.9066V28.1116H8V32.6665C8 35.1794 9.11804 35.9981 10.9358 35.9981C12.9942 35.9981 13.8808 34.7974 13.8808 32.6665V28.1116H12.2963V32.9066H12.2945ZM21.0481 35.8809H22.7197V28.1116H21.0481V35.8809ZM29.9369 28.1116L28.3932 33.9182H28.3414L26.7087 28.1116H24.8225C24.5264 30.7171 24.132 35.8809 24.132 35.8809H25.537L25.9627 30.4978H26.0145L27.5139 35.8809H29.0929L30.5441 30.4978H30.5978L30.9236 35.8809H32.5211C32.5211 35.8809 32.1397 30.7038 31.8565 28.1116H29.9369ZM33.9352 35.8809H35.6031V28.1116H33.9372L33.9352 35.8809ZM41.6857 33.2054L41.6338 33.2167C41.5449 32.9048 38.9924 28.1116 38.9924 28.1116H37.2561V35.8809H38.7572L38.7609 30.5204L38.8128 30.5091L41.569 35.8828H43.1924V28.1116H41.6894L41.6857 33.2054ZM46.3337 28.1116C45.4656 30.7492 44.0402 35.8809 44.0402 35.8809H45.5729L46.0856 34.0222H48.2699L48.7697 35.8809H50.4708C50.4708 35.8809 49.0066 30.7038 48.194 28.1116H46.3337ZM46.4669 32.606L47.1407 29.8492H47.1944L47.8812 32.606H46.4669ZM16.7352 30.2198C16.7352 29.715 17.0795 29.4597 17.6052 29.4276C18.2827 29.386 19.4303 29.6601 19.4303 29.6601V28.1645C18.9176 28.0681 18.3993 28.0132 17.8791 28C16.2076 28 15.0155 28.8036 15.0155 30.3276C15.0155 32.7043 18.1512 32.4547 18.1512 33.748C18.1512 34.2661 17.8754 34.5082 17.2572 34.5706C16.3946 34.6519 15.134 34.1186 15.134 34.1186V35.7107C15.7578 35.8998 16.4038 35.9962 17.0554 36C18.6899 36 19.8616 35.2172 19.8616 33.5911C19.8598 31.3259 16.7352 31.4072 16.7352 30.2198ZM52.8772 30.2198C52.8772 29.715 53.2215 29.4597 53.7472 29.4276C54.4247 29.386 55.5705 29.6601 55.5705 29.6601V28.1645C55.0577 28.0681 54.5395 28.0132 54.0175 28C52.3479 28 51.1539 28.8036 51.1539 30.3276C51.1539 32.7043 54.2859 32.4547 54.2859 33.748C54.2859 34.2661 54.0119 34.5082 53.3954 34.5706C52.5329 34.6519 51.2724 34.1186 51.2724 34.1186V35.7107C51.8961 35.8998 52.5422 35.9962 53.1919 36C54.8264 36 56 35.2172 56 33.5911C56.0037 31.3259 52.8772 31.4072 52.8772 30.2198Z" fill="white"/>
</svg>
